<svg width="1024" height="1024" viewBox="0 0 1024 1024" fill="none" xmlns="http://www.w3.org/2000/svg">
<path d="M70 423.792C70 294.315 175.33 189 304.807 189C356.108 189 403.616 205.552 442.296 233.588C406.449 268.48 380.384 313.37 368.694 363.712C352.679 346.676 329.966 336.022 304.807 336.022C256.393 336.022 217.031 375.383 217.031 423.792C217.031 463.396 243.391 496.953 279.5 507.838V657.231C161.88 644.571 70 544.707 70 423.792Z" stroke="black" stroke-width="25"/>
<path d="M466.074 594.256C462.339 597.79 458.503 601.209 454.542 604.484C450.577 607.787 446.487 610.947 442.296 613.987C410.051 637.358 371.672 652.756 330.075 657.233V507.838C345.005 503.332 358.269 494.944 368.694 483.863C373.412 478.848 377.536 473.281 380.993 467.263C388.349 454.446 392.563 439.606 392.563 423.792C392.563 356.721 420.839 296.147 466.074 253.314C469.809 249.785 473.645 246.366 477.606 243.087C481.586 239.788 485.676 236.623 489.866 233.588C528.533 205.552 575.772 189 628.689 189H668.5H911V332.665H850.375H820.062H789.75V657.231L668.5 657.233V494.949V332.665H628.689C607.423 335.015 577.383 348.901 563.449 363.712C558.74 368.742 554.612 374.304 551.155 380.312C543.824 393.143 539.594 407.979 539.594 423.792C539.594 490.849 511.319 551.438 466.074 594.256Z" stroke="black" stroke-width="25"/>
<path d="M102.825 804.453C92.6531 804.453 87.3563 797.562 87.3563 784.438V771.922C87.3563 758.797 92.6531 751.906 102.778 751.906C110.888 751.906 116.513 757.812 116.794 766.672H126.638C126.45 751.812 117.497 742.953 102.872 742.953C86.7469 742.953 77.325 753.594 77.325 771.922V784.438C77.325 802.766 86.7469 813.406 102.872 813.406C117.122 813.406 126.638 804.359 126.638 790.672H116.794C116.606 799.203 111.263 804.453 102.825 804.453ZM202.134 773.938V760.906H181.931V768.125H193.041V804.781H182.916V812H217.697V804.781H202.181V789.219C202.181 776.703 208.603 769.531 220.134 769.531C222.947 769.531 226.275 770.141 228.572 770.984V760.672C226.884 759.969 224.119 759.594 221.213 759.594C211.416 759.594 205.463 764.328 203.447 773.938H202.134ZM291.834 830.281C302.241 830.281 307.022 826.25 311.475 813.547L330.225 760.906H320.241L306.881 802.719H306.225L292.772 760.906H282.459L301.069 812.375L300.272 814.906C298.397 820.297 295.725 822.359 290.803 822.359C290.053 822.359 288.506 822.312 287.991 822.219V830.141C288.6 830.188 290.381 830.281 291.834 830.281ZM412.941 760.109C405.534 760.109 400.284 763.203 397.894 769.016H397.003V760.906H387.581V829.156H397.238V803.891H398.128C400.191 809.609 405.534 812.844 412.941 812.844C424.706 812.844 432.206 804.453 432.206 791.141V781.812C432.206 768.5 424.706 760.109 412.941 760.109ZM409.8 768.453C417.675 768.453 422.691 773.984 422.691 782.75V790.391C422.691 799.156 417.675 804.734 409.8 804.734C401.972 804.734 397.003 799.203 397.003 790.391V782.75C397.003 773.984 401.972 768.453 409.8 768.453ZM518.156 812V755.844H537.516V744.359H485.484V755.844H504.844V812H518.156ZM614.044 813.125C628.622 813.125 637.809 804.266 637.809 790.156V782.188C637.809 768.078 628.622 759.219 614.044 759.219C599.466 759.219 590.278 768.078 590.278 782.188V790.156C590.278 804.266 599.466 813.125 614.044 813.125ZM614.044 769.719C620.934 769.719 625.2 774.688 625.2 782.703V789.641C625.2 797.609 620.934 802.625 614.044 802.625C607.153 802.625 602.888 797.609 602.888 789.641V782.703C602.888 774.688 607.153 769.719 614.044 769.719ZM716.588 813.125C731.166 813.125 740.353 804.266 740.353 790.156V782.188C740.353 768.078 731.166 759.219 716.588 759.219C702.009 759.219 692.822 768.078 692.822 782.188V790.156C692.822 804.266 702.009 813.125 716.588 813.125ZM716.588 769.719C723.478 769.719 727.744 774.688 727.744 782.703V789.641C727.744 797.609 723.478 802.625 716.588 802.625C709.697 802.625 705.431 797.609 705.431 789.641V782.703C705.431 774.688 709.697 769.719 716.588 769.719ZM841.959 812V801.781H826.538V740.609H798.131V750.828H813.694V801.781H797.288V812H841.959ZM900.769 775.391C900.769 783.359 905.691 788.422 915.394 790.531L923.128 792.172C928.566 793.344 930.534 794.75 930.534 797.656C930.534 801.031 927.159 803.234 921.909 803.234C916.566 803.234 913.097 801.266 912.3 797.703H899.644C900.347 807.406 908.503 813.078 921.722 813.078C935.175 813.078 943.706 806.469 943.706 796.016C943.706 788.141 939.066 783.688 928.612 781.531L920.597 779.891C915.581 778.859 913.425 777.172 913.425 774.359C913.425 771.078 916.659 768.875 921.534 768.875C926.316 768.875 929.691 770.984 930.3 774.406H942.394C941.784 764.703 934.144 759.078 921.628 759.078C908.831 759.078 900.769 765.359 900.769 775.391Z" fill="black"/>
<rect x="839" y="495" width="72" height="162" stroke="black" stroke-width="25"/>
</svg>
